solid face1
facet normal 0 -1 0
outer loop
vertex 0 0 0.3
vertex 0.5 0 0.3
vertex 0 0 0.5
endloop
endfacet
facet normal 0 -1 0
outer loop
vertex 0.6 0 0
vertex 0.6 0 0.3
vertex 0.5 0 0
endloop
endfacet
facet normal 0 -1 0
outer loop
vertex 0.5 0 0
vertex 0.6 0 0.3
vertex 0.5 0 0.3
endloop
endfacet
facet normal 0 -1 0
outer loop
vertex 0.5 0 0.3
vertex 0.6 0 0.3
vertex 0 0 0.5
endloop
endfacet
facet normal 0 -1 0
outer loop
vertex 1.1 0 0.3
vertex 1.1 0 0.5
vertex 0.6 0 0.3
endloop
endfacet
facet normal 0 -1 0
outer loop
vertex 0.6 0 0.3
vertex 1.1 0 0.5
vertex 0 0 0.5
endloop
endfacet
endsolid face1
